<?xml version="1.0" standalone="no"?>
<!DOCTYPE svg PUBLIC "-//W3C//DTD SVG 20010904//EN"
 "http://www.w3.org/TR/2001/REC-SVG-20010904/DTD/svg10.dtd">
<svg version="1.0" xmlns="http://www.w3.org/2000/svg"
 width="512.000000pt" height="512.000000pt" viewBox="0 0 512.000000 512.000000"
 preserveAspectRatio="xMidYMid meet">

<g transform="translate(0.000000,512.000000) scale(0.100000,-0.100000)"
fill="#000000" stroke="none">
<path d="M2380 5114 c-19 -2 -78 -9 -130 -15 -287 -33 -591 -127 -865 -268
-248 -128 -425 -259 -640 -475 -221 -222 -345 -395 -480 -671 -123 -249 -194
-476 -237 -750 -31 -200 -31 -550 0 -750 25 -160 77 -365 128 -504 54 -148
184 -403 272 -536 182 -272 433 -525 697 -702 330 -220 662 -350 1060 -414
199 -31 549 -32 744 0 407 65 735 192 1066 414 185 124 383 304 537 487 165
197 342 506 433 754 202 552 202 1201 0 1752 -47 128 -168 375 -240 488 -194
307 -495 607 -815 810 -267 170 -657 311 -1004 362 -97 14 -454 27 -526 18z
m198 -583 c21 -13 11 -55 -14 -59 -30 -4 -48 21 -34 47 11 22 27 26 48 12z
m-220 -10 c8 -4 12 -19 10 -32 -2 -18 -9 -24 -28 -24 -19 0 -26 6 -28 24 -3
20 11 41 28 41 3 0 11 -4 18 -9z m445 -13 c15 -23 1 -48 -28 -48 -14 0 -25 2
-25 4 0 2 -3 11 -6 19 -6 16 23 50 39 44 6 -2 15 -10 20 -19z m-649 -40 c8
-14 7 -21 -6 -34 -30 -30 -75 9 -48 42 16 18 39 15 54 -8z m865 3 c15 -27 -9
-56 -37 -47 -21 7 -31 44 -15 59 13 13 42 7 52 -12z m-1076 -63 c13 -20 -6
-48 -34 -48 -20 0 -36 40 -24 60 10 16 46 8 58 -12z m856 7 c278 -41 556 -143
765 -282 94 -63 182 -104 349 -164 75 -27 68 -15 101 -169 13 -62 29 -95 87
-185 140 -218 219 -403 276 -650 33 -140 36 -165 40 -360 5 -197 3 -221 -21
-355 -31 -168 -53 -247 -107 -384 -51 -127 -67 -157 -155 -298 -64 -103 -78
-134 -110 -245 -20 -71 -41 -133 -48 -139 -6 -7 -78 -37 -159 -68 -84 -32
-173 -73 -207 -96 -89 -61 -273 -157 -380 -200 -349 -139 -833 -159 -1200 -49
-129 38 -385 157 -495 229 -80 52 -106 63 -242 100 -108 30 -154 47 -157 59
-3 9 -14 66 -26 126 -21 106 -24 115 -103 240 -168 266 -247 468 -298 765 -20
115 -18 431 4 564 45 268 129 485 290 746 36 59 55 108 88 227 l42 151 158 45
c134 39 170 53 236 97 240 157 564 275 828 299 149 14 331 12 444 -4z m431 0
c20 -24 3 -57 -28 -53 -27 3 -39 26 -28 54 7 18 40 18 56 -1z m-1495 -81 c9
-9 14 -21 12 -27 -6 -18 -33 -31 -51 -24 -19 7 -22 53 -3 60 20 9 25 8 42 -9z
m1689 3 c28 -21 17 -52 -19 -52 -33 0 -45 25 -25 50 15 18 21 19 44 2z m-1879
-132 c0 -25 -4 -30 -25 -30 -16 0 -26 6 -28 18 -6 30 6 49 30 45 18 -2 23 -9
23 -33z m2083 9 c2 -11 -4 -26 -12 -33 -31 -26 -71 14 -45 45 17 21 53 14 57
-12z m182 -134 c0 -25 -30 -41 -53 -29 -39 22 -4 79 35 58 10 -5 18 -18 18
-29z m300 -285 c20 -24 3 -57 -28 -53 -30 3 -41 30 -22 53 16 19 34 19 50 0z
m-3172 -191 c2 -11 -4 -26 -12 -33 -31 -26 -71 14 -45 45 17 21 53 14 57 -12z
m3301 7 c13 -24 -8 -55 -35 -49 -20 3 -30 29 -20 54 8 20 43 17 55 -5z m-3414
-206 c0 -23 -5 -31 -22 -33 -31 -5 -49 31 -27 53 25 25 49 15 49 -20z m3513
26 c8 -4 12 -19 10 -32 -4 -29 -45 -34 -61 -7 -19 30 19 60 51 39z m-3600
-200 c8 -4 12 -19 10 -32 -4 -29 -45 -34 -61 -7 -19 30 19 60 51 39z m3691 -8
c12 -23 -4 -53 -29 -53 -29 0 -44 35 -24 54 20 21 41 20 53 -1z m-3749 -208
c18 -21 3 -55 -25 -55 -15 0 -26 7 -30 20 -7 23 10 50 30 50 7 0 18 -7 25 -15z
m3805 -1 c9 -9 14 -21 12 -27 -6 -18 -33 -31 -51 -24 -19 7 -22 53 -3 60 20 9
25 8 42 -9z m-3837 -237 c-5 -37 -67 -33 -68 5 0 4 7 14 16 22 21 22 56 3 52
-27z m3877 3 c0 -19 -6 -26 -24 -28 -27 -4 -41 12 -33 40 3 14 12 18 31 16 20
-2 26 -8 26 -28z m-3895 -205 c20 -24 3 -57 -28 -53 -30 3 -41 30 -22 53 16
19 34 19 50 0z m3914 -1 c8 -21 -11 -44 -35 -44 -20 0 -39 28 -32 48 7 18 60
15 67 -4z m-3906 -203 c8 -4 12 -19 10 -32 -4 -29 -45 -34 -61 -7 -19 30 19
60 51 39z m3880 0 c20 -12 11 -55 -12 -59 -27 -6 -48 25 -35 49 10 20 26 24
47 10z m-3828 -241 c0 -25 -30 -41 -53 -29 -39 22 -4 79 35 58 10 -5 18 -18
18 -29z m3800 26 c0 -2 3 -11 6 -19 9 -23 -24 -49 -47 -37 -19 10 -26 40 -12
53 7 8 53 10 53 3z m-3742 -239 c-2 -17 -10 -22 -33 -22 -35 0 -47 31 -20 51
25 18 57 0 53 -29z m3680 4 c-2 -20 -8 -26 -28 -26 -30 0 -40 33 -15 51 25 19
47 6 43 -25z m-3600 -202 c3 -28 -16 -43 -42 -33 -38 14 -22 68 18 62 14 -2
22 -12 24 -29z m3517 2 c0 -34 -30 -51 -51 -29 -25 24 -10 60 24 56 21 -2 27
-8 27 -27z m-3407 -188 c4 -29 -28 -47 -53 -29 -12 9 -15 19 -10 35 9 30 59
26 63 -6z m3302 8 c14 -28 -13 -55 -41 -41 -19 10 -26 40 -12 53 13 14 43 7
53 -12z m-3186 -167 c27 -26 12 -58 -25 -52 -27 3 -37 32 -19 53 16 19 25 19
44 -1z m3047 6 c23 -13 24 -33 3 -54 -12 -12 -20 -13 -35 -6 -21 12 -25 40 -7
58 15 15 15 15 39 2z m-2736 -316 c9 -9 14 -21 12 -27 -6 -18 -33 -31 -51 -24
-19 7 -22 53 -3 60 20 9 25 8 42 -9z m2435 1 c20 -24 3 -57 -28 -53 -33 4 -42
36 -16 55 23 17 29 16 44 -2z m-2252 -144 c6 -37 -26 -52 -52 -25 -12 12 -13
20 -5 35 15 28 53 21 57 -10z m2079 13 c6 -17 -6 -45 -23 -51 -21 -7 -47 23
-40 45 9 27 53 30 63 6z m-1892 -100 c9 -9 14 -21 12 -27 -6 -18 -33 -31 -51
-24 -19 7 -22 53 -3 60 20 9 25 8 42 -9z m1695 1 c20 -25 8 -50 -25 -50 -21 0
-31 5 -33 18 -4 21 14 47 33 47 7 0 18 -7 25 -15z m-1486 -90 c13 -34 -24 -66
-50 -44 -15 12 -19 41 -7 52 12 13 51 7 57 -8z m1286 11 c0 -2 3 -11 6 -19 9
-23 -24 -49 -47 -37 -19 10 -26 40 -12 53 7 8 53 10 53 3z m-1074 -78 c9 -28
-20 -52 -47 -37 -19 10 -25 39 -12 52 15 16 52 6 59 -15z m864 18 c0 -2 3 -11
6 -19 9 -23 -24 -49 -47 -37 -19 10 -26 40 -12 53 7 8 53 10 53 3z m-662 -35
c21 -13 11 -55 -15 -59 -30 -4 -49 31 -27 52 18 18 24 19 42 7z m440 -3 c30
-30 -1 -73 -36 -51 -23 14 -25 29 -7 47 20 19 27 20 43 4z m-218 -12 c17 -21
8 -60 -14 -64 -18 -4 -46 21 -46 39 0 10 29 39 39 39 5 0 14 -7 21 -14z"/>
<path d="M2355 4309 c-548 -74 -957 -328 -1269 -787 -73 -109 -166 -298 -206
-422 -97 -302 -106 -672 -25 -986 144 -553 582 -1038 1102 -1217 206 -72 276
-82 573 -82 238 0 276 2 375 23 417 87 785 317 1044 652 215 278 330 581 361
947 31 366 -78 784 -285 1093 -261 390 -677 672 -1121 760 -125 25 -429 36
-549 19z m166 -251 c9 -36 33 -238 28 -242 -2 -2 -21 -6 -41 -10 -42 -8 -41
-9 -53 88 -6 46 -7 48 -19 25 -16 -32 -50 -36 -70 -7 -19 26 -19 23 -6 -57 11
-66 6 -75 -46 -75 l-31 0 -18 131 c-19 145 -18 149 41 149 25 0 37 -7 55 -35
13 -19 27 -35 31 -35 3 0 14 20 23 44 15 38 22 45 49 49 45 5 49 3 57 -25z
m317 -8 c32 -14 46 -51 38 -105 -10 -66 -36 -89 -96 -83 l-48 5 -6 -40 c-7
-39 -7 -39 -44 -32 -20 4 -39 8 -42 10 -8 5 23 246 32 261 8 12 127 1 166 -16z
m-724 -59 c14 -27 7 -51 -15 -51 -4 0 -23 -7 -42 -15 -24 -10 -34 -20 -31 -29
4 -12 12 -11 45 2 35 13 42 14 50 1 18 -28 9 -50 -26 -65 -34 -14 -44 -28 -26
-38 5 -3 30 4 57 15 46 21 48 21 61 3 27 -37 16 -50 -74 -87 -48 -20 -91 -33
-95 -29 -10 10 -98 221 -98 237 0 10 143 80 172 84 4 1 14 -12 22 -28z m979
-3 c55 -18 101 -38 104 -44 7 -18 -16 -66 -30 -61 -56 21 -53 24 -87 -78 -25
-74 -36 -95 -47 -91 -8 4 -26 9 -39 12 -30 8 -30 12 5 116 l29 87 -29 10 c-16
5 -29 16 -29 23 0 21 12 58 18 58 3 0 51 -15 105 -32z m269 -134 c83 -46 83
-47 68 -84 -9 -22 -17 -29 -29 -25 -9 4 -20 9 -26 11 -5 2 -23 -19 -39 -48
-26 -48 -27 -53 -11 -64 20 -15 14 -61 -9 -70 -11 -4 -146 63 -164 81 -2 2 4
17 13 34 13 26 19 30 35 21 27 -15 27 -15 60 43 l30 52 -22 16 c-21 16 -21 18
-5 43 10 14 21 26 26 26 5 0 38 -16 73 -36z m-1490 -39 c55 -73 72 -113 62
-144 -9 -26 -135 -121 -161 -121 -10 0 -137 182 -149 215 -2 5 29 31 69 58 96
63 126 62 179 -8z m641 -85 c32 -25 51 -25 85 0 24 18 34 19 96 10 53 -8 74
-16 92 -35 24 -26 58 -33 70 -14 15 25 162 -27 171 -60 6 -24 42 -40 76 -34
36 7 143 -61 152 -97 10 -38 24 -50 60 -50 26 0 42 -10 85 -55 36 -39 51 -62
47 -75 -6 -25 19 -60 43 -60 24 0 50 -28 84 -90 20 -36 25 -54 18 -67 -13 -23
2 -54 37 -74 33 -19 75 -132 60 -161 -15 -29 -10 -65 12 -79 35 -24 53 -165
24 -189 -20 -16 -19 -59 1 -81 26 -29 11 -144 -23 -175 -21 -19 -24 -29 -19
-56 11 -53 9 -70 -14 -131 -15 -40 -29 -61 -45 -67 -26 -10 -39 -41 -31 -73 8
-34 -65 -144 -101 -153 -34 -9 -54 -33 -47 -57 8 -26 -107 -141 -133 -133 -24
7 -48 -13 -57 -47 -10 -41 -104 -99 -164 -101 -38 -1 -49 -5 -58 -25 -15 -29
-27 -36 -97 -60 -39 -14 -58 -16 -77 -8 -35 14 -61 9 -86 -18 -28 -31 -146
-45 -173 -21 -22 20 -55 20 -86 0 -37 -24 -146 -10 -176 22 -23 24 -62 31 -88
15 -8 -5 -38 0 -79 13 -48 15 -70 28 -81 48 -20 34 -49 48 -78 37 -18 -6 -36
1 -85 34 -35 23 -65 51 -67 62 -6 34 -33 57 -58 50 -36 -9 -123 78 -132 131
-5 33 -12 42 -44 57 -52 24 -111 116 -103 160 7 37 -2 54 -35 71 -33 16 -78
140 -61 167 18 28 15 44 -15 80 -23 27 -28 44 -31 104 -3 56 -1 74 12 84 21
18 20 47 -2 76 -28 35 -13 149 23 183 28 25 30 39 14 76 -17 37 23 151 61 171
33 17 41 35 34 73 -7 37 66 152 97 152 27 0 48 27 49 60 0 34 95 130 130 130
33 1 60 22 60 49 0 31 115 104 152 97 38 -7 56 1 73 35 20 38 144 81 176 61
24 -15 57 -7 79 20 11 14 35 23 75 28 33 4 63 8 66 9 4 0 18 -8 32 -19z m1086
-64 c42 -22 101 -92 101 -121 0 -32 -117 -169 -149 -173 -33 -5 -108 44 -138
89 -26 40 -26 41 -10 72 10 18 42 58 71 90 56 61 77 68 125 43z m-2064 -16
c17 -19 17 -21 -19 -60 -20 -22 -36 -45 -36 -50 0 -19 30 -10 46 15 20 30 35
32 59 5 18 -20 18 -21 -10 -50 -22 -23 -26 -33 -17 -42 9 -9 22 -3 55 30 l43
42 23 -24 23 -25 -63 -70 c-35 -39 -68 -71 -74 -71 -13 0 -195 169 -195 180 0
15 121 140 135 140 6 0 20 -9 30 -20z m-187 -266 c12 -8 22 -19 22 -24 0 -6
10 -5 24 1 20 9 33 7 75 -16 28 -16 51 -32 51 -37 0 -7 -21 -45 -37 -67 -2 -2
-19 4 -39 15 l-36 19 -20 -25 c-19 -23 -19 -25 -3 -35 52 -31 60 -42 47 -69
-6 -15 -18 -29 -27 -32 -14 -6 -235 114 -235 127 0 16 72 135 92 152 22 18 45
16 86 -9z m2492 2 c10 -20 10 -34 0 -76 -7 -28 -10 -53 -8 -56 3 -2 16 5 31
16 14 11 30 20 35 20 16 0 56 -61 45 -69 -5 -3 -56 -39 -112 -80 l-103 -74
-24 29 c-29 36 -29 40 0 59 20 13 46 76 46 110 0 3 -23 -12 -52 -34 -29 -22
-56 -38 -60 -35 -4 3 -16 18 -28 34 l-20 28 102 76 c57 41 110 75 119 76 9 0
21 -11 29 -24z m188 -411 c-12 -12 -258 -94 -258 -86 0 7 109 49 240 93 16 6
27 1 18 -7z m-2801 -36 c68 -22 123 -44 123 -49 0 -8 -257 73 -268 85 -13 13
33 2 145 -36z m-29 -70 c106 -28 158 -49 123 -49 -23 0 -245 62 -255 71 -17
15 9 10 132 -22z m2852 22 c-26 -15 -250 -74 -257 -67 -10 9 -6 11 117 44 117
31 169 40 140 23z m-2851 -106 c108 -24 143 -35 110 -35 -33 0 -269 54 -269
62 0 5 10 6 23 3 12 -2 73 -16 136 -30z m2881 27 c0 -8 -237 -62 -269 -62 -36
0 8 15 121 40 142 32 148 33 148 22z m-2892 -97 c61 -10 112 -22 112 -27 0 -6
-12 -8 -27 -5 -16 3 -79 13 -140 22 -62 10 -113 22 -113 27 0 6 12 8 28 5 15
-3 78 -13 140 -22z m2902 15 c0 -5 -3 -10 -7 -10 -5 0 -64 -9 -133 -20 -113
-18 -142 -19 -129 -5 4 4 219 41 257 44 6 1 12 -3 12 -9z m-2925 -91 c61 -6
117 -16 125 -20 22 -12 -4 -11 -150 6 -69 8 -126 15 -127 15 -2 0 -3 5 -3 10
0 6 10 8 23 6 12 -3 72 -10 132 -17z m2940 11 c3 -5 5 -10 3 -10 -2 0 -59 -7
-128 -15 -141 -17 -166 -18 -156 -8 4 4 64 15 134 24 70 9 130 17 134 18 4 0
10 -3 13 -9z m-2922 -86 c59 -3 107 -10 107 -16 0 -9 -57 -7 -228 8 -34 3 -60
9 -57 14 3 5 20 7 38 5 17 -3 80 -7 140 -11z m2927 7 c0 -5 -28 -12 -62 -15
-180 -16 -218 -17 -218 -8 0 6 42 13 93 16 86 6 144 11 175 14 6 1 12 -2 12
-7z m-2825 -91 c4 -6 -45 -10 -139 -10 -91 0 -146 4 -146 10 0 6 53 10 139 10
83 0 142 -4 146 -10z m2830 0 c4 -6 -45 -10 -139 -10 -91 0 -146 4 -146 10 0
6 53 10 139 10 83 0 142 -4 146 -10z m-2835 -80 c-13 -7 -247 -16 -275 -9 -5
1 8 5 30 9 60 11 263 11 245 0z m2778 4 c28 -4 52 -10 52 -13 0 -9 -253 0
-270 10 -18 10 139 12 218 3z m-2768 -64 c0 -5 -8 -10 -17 -10 -10 -1 -72 -7
-138 -14 -110 -13 -136 -13 -124 -2 2 2 63 11 134 19 72 8 133 15 138 16 4 0
7 -3 7 -9z m2692 -10 c54 -5 102 -10 108 -10 5 0 10 -5 10 -10 0 -6 -10 -8
-22 -6 -13 3 -76 10 -140 17 -65 6 -118 16 -118 21 0 5 15 6 33 4 17 -3 76
-10 129 -16z m-2687 -60 c3 -5 0 -10 -7 -10 -7 0 -69 -9 -138 -19 -69 -10
-127 -17 -129 -15 -11 10 16 17 131 34 67 9 126 18 130 19 4 0 10 -3 13 -9z
m2688 -15 c59 -8 110 -15 113 -15 3 0 3 -4 0 -8 -3 -5 -60 -1 -128 9 -68 10
-129 19 -135 19 -7 0 -13 4 -13 10 0 5 12 7 28 5 15 -3 76 -12 135 -20z
m-2668 -54 c-12 -10 -277 -63 -283 -56 -9 9 0 11 123 37 130 28 174 33 160 19z
m2633 -17 c72 -15 132 -31 132 -36 0 -5 -8 -7 -17 -4 -10 3 -70 15 -133 27
-63 12 -119 26 -124 30 -14 13 -5 12 142 -17z m-4 -134 c40 -18 66 -35 66 -45
0 -19 1 -19 -57 5 l-48 20 42 -37 c56 -50 48 -67 -27 -53 -72 14 -72 13 -12
-15 32 -15 52 -30 49 -37 -6 -16 -8 -16 -89 20 -58 27 -66 33 -61 52 6 21 10
22 62 17 l56 -6 -38 32 c-35 30 -46 55 -30 70 10 11 17 9 87 -23z m-2707 5
c27 -19 43 -64 32 -93 -13 -35 -37 -25 -30 12 1 6 0 20 -4 33 -11 44 -105 20
-105 -27 0 -21 36 -55 44 -42 3 6 3 17 0 26 -10 27 22 18 34 -9 16 -34 16 -32
-17 -49 -24 -13 -31 -13 -48 -1 -27 19 -47 69 -39 100 7 28 59 65 91 65 11 0
30 -7 42 -15z m113 -196 c22 -34 30 -53 23 -60 -7 -7 -18 0 -34 23 -12 18 -24
35 -25 37 -2 2 -10 1 -19 -3 -15 -5 -14 -10 5 -42 15 -24 19 -39 13 -45 -7 -7
-18 1 -33 25 -18 31 -24 34 -41 25 -20 -10 -19 -14 12 -60 17 -24 16 -39 -2
-39 -8 0 -73 99 -68 104 5 4 133 86 135 86 1 0 17 -23 34 -51z m2491 6 c54
-29 63 -83 20 -126 -35 -34 -68 -37 -105 -8 -39 31 -49 64 -31 99 26 50 64 62
116 35z m-2363 -197 c-8 -4 -18 -2 -24 7 -16 21 -20 20 -75 -27 -41 -34 -52
-39 -59 -28 -7 10 -5 18 4 25 7 6 30 25 50 43 31 27 35 36 26 47 -7 8 -9 22
-6 31 5 12 16 4 51 -37 32 -38 42 -55 33 -61z m2262 5 c28 -36 25 -68 -12
-108 l-33 -35 -59 53 -60 53 23 33 c13 18 33 36 45 40 28 11 72 -6 96 -36z
m-186 -81 c2 -4 -11 -21 -30 -36 -28 -22 -33 -31 -24 -42 10 -11 17 -9 45 12
23 18 35 22 40 13 5 -7 -5 -21 -24 -36 -25 -20 -29 -28 -20 -39 16 -19 23 -18
59 12 21 18 35 23 41 17 7 -7 -6 -24 -39 -52 l-50 -41 -52 62 -52 62 41 38
c40 38 55 45 65 30z m-1930 -46 c48 -41 41 -69 -8 -31 -25 19 -35 22 -44 13
-9 -9 -6 -18 14 -39 32 -33 14 -52 -20 -20 l-22 21 -24 -25 c-18 -19 -26 -22
-36 -14 -11 9 -3 23 38 70 28 32 54 59 57 59 3 -1 24 -16 45 -34z m1756 -106
c-27 -22 -32 -32 -23 -41 9 -9 19 -6 43 11 21 15 35 19 42 12 6 -6 -1 -17 -21
-31 -17 -13 -31 -29 -31 -36 0 -27 21 -26 57 0 27 22 37 25 43 15 6 -10 -6
-24 -38 -47 -26 -18 -51 -32 -56 -30 -5 2 -29 30 -53 64 l-43 61 47 35 c32 24
51 32 58 26 7 -7 -2 -20 -25 -39z m-1655 30 c3 -5 -16 -38 -41 -74 -37 -52
-50 -63 -61 -54 -11 9 -9 16 10 42 13 17 33 46 46 64 23 33 35 39 46 22z m73
-53 c6 -7 12 -37 14 -67 l3 -55 23 43 c12 23 27 42 32 42 22 0 17 -23 -21 -89
-50 -87 -69 -87 -69 0 0 32 -3 59 -8 59 -4 0 -16 -16 -26 -35 -18 -33 -46 -48
-46 -24 0 14 73 139 81 139 4 0 11 -6 17 -13z m1483 -58 c8 -16 8 -28 0 -45
-8 -19 -8 -24 3 -24 8 0 24 -9 37 -19 21 -17 22 -20 7 -26 -9 -4 -30 1 -47 9
-45 24 -65 21 -57 -6 12 -37 12 -51 1 -55 -6 -2 -27 30 -47 70 l-36 74 41 21
c55 27 83 27 98 1z m-1263 -132 c3 -81 1 -88 -15 -85 -10 2 -19 13 -21 24 -2
12 -15 27 -29 33 -21 10 -29 9 -43 -4 -10 -9 -24 -13 -34 -9 -14 5 -7 18 41
69 37 41 65 63 78 62 18 -2 20 -10 23 -90z m1080 71 c-3 -7 -19 -17 -37 -22
-21 -6 -31 -14 -29 -25 4 -17 30 -19 61 -6 12 5 17 3 17 -8 0 -8 -13 -20 -29
-27 -27 -11 -29 -14 -19 -42 8 -23 8 -32 -3 -39 -10 -6 -20 9 -41 64 -16 39
-28 75 -28 78 0 9 70 38 93 38 11 1 17 -4 15 -11z m-935 -93 l21 -60 12 48
c14 56 16 58 32 48 9 -5 7 -25 -9 -81 -11 -41 -22 -76 -23 -78 -13 -12 -36 18
-46 59 -15 63 -27 69 -35 18 -6 -35 -27 -60 -40 -47 -2 2 5 39 17 81 26 95 43
98 71 12z m642 -60 l8 -47 43 5 c32 3 44 1 44 -8 0 -15 -100 -40 -111 -28 -4
5 -12 39 -18 77 -10 56 -10 71 1 77 15 10 23 -8 33 -76z m-400 55 c15 -16 16
-23 6 -33 -10 -9 -15 -8 -25 6 -16 21 -49 22 -65 3 -17 -20 -10 -77 11 -90 13
-8 22 -6 38 9 16 15 23 16 33 6 9 -10 7 -16 -12 -32 -27 -22 -40 -23 -75 -8
-36 17 -51 59 -36 103 6 20 19 40 28 46 29 16 78 11 97 -10z m106 -2 c-1 -5
-1 -42 -1 -84 0 -66 -2 -75 -17 -72 -10 2 -18 11 -17 21 0 9 1 47 2 83 2 53 5
65 18 62 8 -2 15 -6 15 -10z m179 -68 c36 -71 38 -80 21 -80 -10 0 -21 7 -25
15 -9 24 -73 20 -81 -5 -3 -11 -14 -20 -24 -20 -17 0 -16 6 8 85 34 111 47
112 101 5z"/>
<path d="M2740 3966 c0 -24 23 -41 41 -30 5 3 9 16 9 30 0 19 -5 24 -25 24
-20 0 -25 -5 -25 -24z"/>
<path d="M1752 3772 l-22 -17 35 -53 c31 -45 38 -51 55 -42 32 17 32 28 0 74
-38 57 -41 58 -68 38z"/>
<path d="M2517 3643 c-21 -22 -150 -32 -172 -13 -18 15 -52 5 -65 -19 -12 -24
-125 -64 -157 -56 -35 9 -60 -2 -67 -29 -8 -31 -100 -90 -143 -92 -39 -2 -66
-21 -59 -41 8 -21 -91 -123 -119 -123 -30 0 -47 -22 -49 -63 -2 -43 -61 -135
-92 -143 -27 -7 -37 -32 -28 -68 8 -33 -32 -143 -57 -156 -25 -14 -32 -43 -16
-73 17 -33 6 -140 -17 -166 -20 -23 -21 -60 0 -75 23 -17 35 -129 17 -163 -16
-31 -7 -70 17 -78 23 -7 65 -126 56 -160 -8 -32 2 -55 30 -65 32 -13 97 -112
92 -143 -4 -30 18 -57 46 -57 26 0 114 -86 119 -117 5 -33 27 -53 56 -51 36 3
120 -49 143 -88 22 -38 42 -48 68 -34 13 7 33 4 71 -9 84 -29 88 -32 94 -52 7
-21 53 -27 72 -8 17 17 142 0 164 -22 24 -24 47 -24 74 1 16 15 36 20 90 21
39 1 83 -1 99 -6 23 -6 32 -3 50 17 28 33 128 70 159 59 28 -11 67 7 67 30 0
23 105 92 140 91 37 0 60 16 60 41 0 29 98 127 126 127 29 0 44 19 44 57 0 41
63 143 89 143 23 0 44 45 32 68 -13 25 25 132 56 158 21 18 24 27 18 50 -16
56 -8 155 14 185 26 35 27 60 3 80 -22 19 -40 145 -22 163 19 19 11 63 -14 79
-31 21 -70 131 -55 158 12 24 -3 55 -31 64 -29 9 -90 104 -90 140 -1 39 -21
65 -52 65 -32 0 -118 89 -118 122 0 27 -30 49 -57 42 -26 -7 -131 60 -143 90
-10 28 -33 38 -65 30 -35 -9 -126 24 -158 57 -28 29 -60 38 -72 19 -14 -23
-175 -4 -175 21 0 16 -55 10 -73 -8z m278 -98 c228 -58 431 -192 571 -378 71
-94 164 -293 164 -349 0 -20 -3 -21 -65 -15 -36 4 -70 9 -76 13 -6 3 3 18 23
35 28 24 31 30 18 39 -8 5 -30 10 -47 10 -18 0 -33 2 -33 4 0 3 11 17 25 32
14 15 25 31 25 35 0 5 -20 9 -45 9 -25 0 -45 3 -45 6 0 3 9 17 20 31 34 43 27
56 -25 49 -25 -4 -45 -5 -45 -2 0 3 9 20 20 40 24 40 16 49 -30 36 -19 -5 -36
-8 -38 -6 -2 3 2 20 9 40 7 20 10 38 7 42 -4 3 -23 1 -43 -6 -42 -14 -51 -10
-36 18 13 24 15 62 4 62 -5 0 -22 -9 -40 -20 -38 -23 -45 -17 -33 33 10 46 2
51 -38 26 -18 -10 -35 -19 -37 -19 -3 0 -5 20 -5 45 0 25 -4 45 -9 45 -4 0
-20 -11 -36 -26 -32 -29 -39 -26 -41 22 -1 47 -10 52 -42 21 -16 -15 -31 -27
-34 -27 -3 0 -8 18 -12 40 -7 48 -18 50 -48 10 -12 -16 -25 -30 -29 -30 -3 0
-9 18 -13 40 -7 48 -25 51 -49 10 -23 -39 -30 -38 -46 6 -15 41 -30 40 -50 -4
-8 -18 -17 -32 -21 -32 -4 0 -13 15 -21 33 -8 17 -21 32 -29 32 -8 0 -18 -15
-24 -32 -5 -18 -12 -33 -16 -33 -5 0 -17 16 -29 36 -24 41 -38 38 -47 -11 -3
-20 -12 -35 -20 -35 -8 0 -14 3 -14 8 0 4 -9 18 -20 32 -17 21 -21 23 -30 10
-5 -8 -10 -27 -10 -41 0 -40 -11 -42 -40 -7 -32 39 -50 31 -50 -23 0 -46 -8
-48 -40 -14 -32 34 -40 32 -40 -13 0 -50 -7 -56 -38 -32 -40 32 -56 27 -48
-18 3 -22 3 -41 0 -45 -3 -3 -21 4 -40 15 -19 11 -38 18 -41 14 -4 -3 -1 -23
5 -43 6 -20 10 -39 7 -41 -2 -2 -19 2 -39 9 -45 16 -53 8 -37 -37 15 -41 11
-50 -17 -35 -21 11 -62 15 -62 6 0 -2 8 -20 17 -40 9 -19 14 -37 12 -40 -3 -2
-21 0 -39 5 -46 13 -58 -1 -31 -38 11 -17 21 -33 21 -36 0 -3 -20 -6 -45 -6
-25 0 -45 -4 -45 -9 0 -4 11 -20 25 -35 30 -32 26 -44 -12 -39 -15 2 -35 -1
-43 -6 -12 -8 -10 -15 14 -40 16 -17 27 -33 25 -36 -3 -2 -38 -8 -79 -11 -67
-7 -73 -6 -67 10 4 10 10 30 13 44 13 55 94 209 144 276 172 226 412 366 693
406 95 13 255 3 362 -25z m-680 -295 c4 -6 -1 -7 -11 -3 -11 4 -22 -1 -30 -12
-8 -10 -14 -14 -14 -9 0 26 42 44 55 24z m939 2 c3 -5 -5 -8 -17 -8 -17 1 -22
-5 -21 -22 0 -16 -3 -19 -10 -12 -5 5 -53 10 -105 10 l-95 0 -40 -37 -40 -38
34 42 35 41 101 1 c77 1 105 5 114 16 14 16 36 20 44 7z m-698 -54 l29 -33
-30 27 c-28 25 -37 27 -135 31 l-105 3 106 2 105 2 30 -32z m247 -67 c134 -1
197 -5 221 -15 35 -15 99 -86 110 -123 6 -18 15 -23 43 -23 30 0 42 8 75 45
32 36 46 45 73 45 18 0 38 7 45 15 7 8 17 15 23 15 6 0 2 -6 -8 -14 -12 -9
-16 -19 -11 -32 6 -15 5 -17 -5 -6 -7 6 -27 12 -45 12 -24 0 -40 -9 -65 -37
l-33 -38 55 -6 c65 -7 178 -58 171 -79 -3 -7 4 -20 14 -28 12 -9 14 -13 4 -10
-8 2 -19 15 -25 27 -6 13 -36 36 -67 52 -51 26 -68 29 -148 29 l-90 0 5 -40
c3 -28 1 -40 -8 -40 -9 0 -9 -2 0 -8 15 -9 14 -212 -1 -212 -7 0 -6 -4 2 -8 9
-7 9 -19 -4 -58 -21 -63 -57 -101 -115 -121 l-46 -17 31 -73 31 -73 100 -2
100 -2 -97 -3 -97 -4 11 -27 c18 -47 26 -66 47 -114 12 -26 21 -49 21 -51 0
-3 -36 -4 -79 -3 -44 0 -77 -2 -75 -5 3 -6 -7 -5 -78 6 -42 6 -36 -2 -111 175
-48 114 -60 142 -61 150 -6 27 -24 30 -175 30 l-158 0 0 205 0 206 131 -3 131
-3 1 -57 c1 -37 -3 -58 -10 -58 -6 0 -5 -4 3 -9 7 -5 11 -13 8 -18 -15 -25 13
-34 104 -35 52 0 102 0 112 1 15 1 17 13 17 106 l0 105 -249 0 -248 0 1 28 1
27 -95 6 c-63 3 -77 6 -41 7 l54 2 -19 23 -19 22 26 -22 c15 -14 38 -23 57
-23 34 0 34 -1 35 85 0 22 5 43 11 47 8 5 7 8 -1 8 -7 0 -13 5 -13 10 0 6 44
10 111 10 85 0 108 3 103 13 -6 9 -5 9 7 1 9 -8 78 -12 202 -13z m-678 -55
c-11 -8 -16 -19 -12 -30 4 -10 3 -15 -3 -11 -20 13 -2 55 24 55 5 0 1 -6 -9
-14z m131 -38 c19 -23 19 -23 -1 -6 -11 9 -38 18 -60 21 l-40 4 41 1 c31 2 45
-3 60 -20z m-202 -187 c-5 -6 -34 20 -34 30 0 5 8 1 18 -8 10 -10 17 -20 16
-22z m119 -138 c-68 -2 -178 -2 -245 0 -68 1 -13 3 122 3 135 0 190 -2 123 -3z
m1415 0 c-64 -2 -172 -2 -240 0 -68 1 -15 3 117 3 132 0 187 -2 123 -3z
m-1730 -40 c-10 -2 -26 -2 -35 0 -10 3 -2 5 17 5 19 0 27 -2 18 -5z m415 0
c-7 -2 -21 -2 -30 0 -10 3 -4 5 12 5 17 0 24 -2 18 -5z m1005 0 c-10 -2 -26
-2 -35 0 -10 3 -2 5 17 5 19 0 27 -2 18 -5z m415 0 c-7 -2 -21 -2 -30 0 -10 3
-4 5 12 5 17 0 24 -2 18 -5z m-1722 -51 c-5 -25 -6 -26 -9 -4 -2 13 -9 21 -15
19 -7 -2 -11 -11 -9 -21 2 -10 -4 -16 -17 -16 -16 0 -20 5 -17 23 3 12 5 22 5
23 1 0 16 1 35 2 31 1 33 0 27 -26z m59 2 c0 11 3 16 7 13 3 -4 11 -3 17 2 7
6 12 1 13 -16 0 -16 -2 -21 -7 -13 -5 8 -10 9 -14 1 -6 -10 -67 -11 -62 -1 2
3 6 14 10 25 7 19 8 19 21 -5 12 -21 14 -22 15 -6z m57 -11 c-3 -10 -5 -4 -5
12 0 17 2 24 5 18 2 -7 2 -21 0 -30z m46 29 c3 7 6 0 6 -16 1 -23 -2 -26 -13
-17 -11 9 -15 9 -19 -1 -3 -7 -6 0 -6 16 -1 23 2 26 13 17 11 -9 15 -9 19 1z
m60 -13 c3 -13 0 -22 -9 -26 -20 -7 -38 11 -31 31 9 23 34 20 40 -5z m1202 -4
c0 -16 -8 -20 -42 -22 -37 -2 -43 0 -43 17 0 11 5 20 10 20 6 0 10 -7 10 -15
0 -22 18 -18 25 6 8 26 40 21 40 -6z m120 17 l-20 -5 20 -8 20 -8 -20 -1 -20
-1 20 -9 c19 -8 19 -9 -2 -9 -17 -1 -23 5 -23 19 0 28 -20 25 -21 -2 l-2 -23
-4 23 c-2 12 -11 22 -18 22 -7 0 -15 -10 -17 -22 -3 -21 -4 -21 -9 5 l-6 27
61 -1 c33 -1 52 -4 41 -7z m83 -5 c7 -5 12 -3 12 4 0 7 2 10 5 8 2 -3 1 -15
-2 -28 l-6 -23 -13 23 c-12 22 -20 14 -15 -15 1 -5 -4 -4 -12 3 -12 9 -16 9
-20 -1 -3 -7 -6 0 -6 15 -1 23 3 27 22 25 12 -2 28 -7 35 -11z m-325 -4 c-7
-2 -21 -2 -30 0 -10 3 -4 5 12 5 17 0 24 -2 18 -5z m420 0 c-7 -2 -21 -2 -30
0 -10 3 -4 5 12 5 17 0 24 -2 18 -5z m-1835 -30 c-10 -2 -26 -2 -35 0 -10 3
-2 5 17 5 19 0 27 -2 18 -5z m415 0 c-7 -2 -21 -2 -30 0 -10 3 -4 5 12 5 17 0
24 -2 18 -5z m-415 -40 c-10 -2 -26 -2 -35 0 -10 3 -2 5 17 5 19 0 27 -2 18
-5z m420 0 c-10 -2 -26 -2 -35 0 -10 3 -2 5 17 5 19 0 27 -2 18 -5z m-105 -30
c-68 -2 -178 -2 -245 0 -68 1 -13 3 122 3 135 0 190 -2 123 -3z m1415 -10
c-64 -2 -172 -2 -240 0 -68 1 -15 3 117 3 132 0 187 -2 123 -3z m-1448 -77 c0
-2 -7 -7 -16 -10 -8 -3 -12 -2 -9 4 6 10 25 14 25 6z m508 -178 l-3 -163 -132
-3 -133 -3 0 101 0 100 -32 0 c-17 0 -41 -8 -52 -17 -20 -17 -20 -17 -7 0 12
16 9 17 -38 17 -37 0 -68 8 -111 30 -33 17 -60 33 -60 35 0 3 27 -8 60 -25 53
-27 69 -30 150 -30 l90 0 0 60 0 60 135 0 135 0 -2 -162z m-513 124 c-3 -3
-11 0 -18 7 -9 10 -8 11 6 5 10 -3 15 -9 12 -12z m1218 2 c-4 -11 1 -22 12
-30 20 -15 16 -18 -9 -8 -16 6 -22 35 -9 47 11 11 13 8 6 -9z m-1423 -85 c0
-6 -11 -20 -25 -31 -38 -30 -32 -48 15 -48 45 0 50 -11 20 -42 -33 -35 -26
-51 20 -46 45 4 49 -5 20 -42 -29 -37 -25 -43 25 -38 48 6 55 -3 30 -36 -8
-11 -15 -26 -15 -33 0 -15 34 -17 60 -3 27 15 34 -4 15 -40 -22 -42 -12 -53
32 -35 19 8 38 15 40 15 5 0 -1 -32 -13 -72 -7 -23 24 -24 52 -3 31 23 37 18
30 -30 -8 -51 3 -57 44 -25 36 28 43 25 37 -20 -6 -49 5 -57 42 -31 16 12 32
21 35 21 3 0 6 -18 6 -40 0 -47 18 -53 48 -15 28 36 42 31 42 -15 0 -49 20
-53 51 -10 24 32 39 31 39 -4 0 -12 6 -30 13 -40 13 -17 15 -16 36 18 13 20
26 36 30 36 4 0 12 -17 17 -37 12 -48 26 -51 47 -8 17 35 37 47 37 21 0 -8 9
-24 19 -37 l20 -24 19 45 19 45 23 -38 c27 -45 42 -43 54 6 5 20 12 37 15 37
3 0 15 -14 26 -30 27 -41 42 -38 50 10 8 46 16 50 39 15 30 -46 55 -23 47 43
-3 20 24 14 49 -13 29 -31 40 -24 40 26 0 21 3 39 6 39 3 0 19 -9 35 -21 37
-26 48 -18 42 31 -6 43 1 48 31 25 28 -21 59 -20 52 3 -22 75 -20 82 24 57 50
-29 63 -14 35 39 -19 37 -14 42 32 28 49 -15 58 -7 33 34 -11 20 -20 37 -20
40 0 3 20 2 45 -2 52 -7 59 6 25 48 -24 32 -17 39 32 32 45 -8 50 8 18 49 -27
34 -26 37 20 37 47 0 52 15 15 50 -13 12 -22 27 -19 31 3 5 39 9 80 9 l74 0
-25 -66 c-56 -149 -130 -267 -234 -373 -383 -388 -1007 -402 -1405 -30 -126
118 -210 245 -265 402 -17 49 -31 90 -31 93 0 2 34 4 75 4 48 0 75 -4 75 -11z
m1302 -89 c24 0 38 -5 42 -16 4 -10 14 -14 26 -11 11 3 18 1 14 -4 -8 -14 -30
-11 -44 6 -7 8 -27 15 -44 15 -25 0 -41 10 -71 43 l-40 42 40 -37 c32 -29 49
-38 77 -38z m-977 10 c-23 -26 -87 -27 -106 -2 -11 14 -11 15 1 5 19 -18 85
-16 100 2 7 8 15 15 18 15 3 0 -3 -9 -13 -20z m-139 -12 c-1 -17 4 -23 21 -22
12 0 20 -3 17 -8 -15 -24 -61 9 -50 37 8 21 13 19 12 -7z m454 -131 c0 -2 -12
-14 -27 -28 l-28 -24 24 28 c23 25 31 32 31 24z m-249 -34 c13 -16 12 -17 -3
-4 -10 7 -18 15 -18 17 0 8 8 3 21 -13z m901 -8 c-3 -21 0 -25 18 -25 19 0 22
4 17 26 -3 16 -1 22 5 16 15 -15 5 -46 -16 -50 -26 -5 -50 26 -35 45 16 18 17
17 11 -12z m-907 -25 c-3 -5 -14 -10 -23 -9 -14 0 -13 2 3 9 27 11 27 11 20 0z
m347 -125 c6 -30 2 -35 -29 -35 -19 0 -23 5 -23 30 0 25 4 30 24 30 17 0 25
-7 28 -25z m63 -5 c0 -18 -6 -26 -21 -28 -23 -3 -37 18 -27 44 10 25 48 13 48
-16z m40 13 c7 -17 8 -16 15 2 7 17 9 14 9 -12 1 -36 -12 -44 -24 -15 -7 16
-8 15 -15 -3 -7 -17 -9 -14 -9 13 -1 35 12 43 24 15z m83 -15 c3 -24 0 -28
-22 -28 -22 0 -26 4 -26 31 0 26 3 30 23 27 16 -2 23 -11 25 -30z m57 22 c4
-6 -1 -7 -12 -4 -17 5 -17 5 0 -9 9 -8 17 -19 17 -26 0 -14 -37 -14 -46 0 -4
8 1 9 17 4 l24 -7 -23 17 c-23 17 -22 35 3 35 8 0 17 -4 20 -10z m-342 -7 c-7
-2 -21 -2 -30 0 -10 3 -4 5 12 5 17 0 24 -2 18 -5z m420 0 c-7 -2 -21 -2 -30
0 -10 3 -4 5 12 5 17 0 24 -2 18 -5z m-420 -40 c-7 -2 -21 -2 -30 0 -10 3 -4
5 12 5 17 0 24 -2 18 -5z m420 0 c-7 -2 -21 -2 -30 0 -10 3 -4 5 12 5 17 0 24
-2 18 -5z m-415 -40 c-10 -2 -26 -2 -35 0 -10 3 -2 5 17 5 19 0 27 -2 18 -5z
m415 0 c-7 -2 -21 -2 -30 0 -10 3 -4 5 12 5 17 0 24 -2 18 -5z m-105 -30 c-64
-2 -172 -2 -240 0 -68 1 -15 3 117 3 132 0 187 -2 123 -3z"/>
<path d="M1960 2625 c0 -8 5 -15 10 -15 6 0 10 7 10 15 0 8 -4 15 -10 15 -5 0
-10 -7 -10 -15z"/>
<path d="M3170 2625 c0 -8 5 -15 10 -15 6 0 10 7 10 15 0 8 -4 15 -10 15 -5 0
-10 -7 -10 -15z"/>
<path d="M2490 1891 c0 -12 6 -21 16 -21 9 0 14 7 12 17 -5 25 -28 28 -28 4z"/>
<path d="M2620 1890 c0 -11 5 -20 10 -20 6 0 10 9 10 20 0 11 -4 20 -10 20 -5
0 -10 -9 -10 -20z"/>
<path d="M3525 3548 c-38 -45 -41 -64 -12 -82 14 -9 23 -4 57 34 45 52 45 53
24 74 -22 23 -28 21 -69 -26z"/>
<path d="M1277 3296 c-6 -15 11 -36 29 -36 18 0 27 32 12 42 -19 12 -35 10
-41 -6z"/>
<path d="M3768 1839 c-10 -5 -18 -20 -18 -33 0 -51 77 -80 100 -37 14 26 3 49
-31 66 -33 17 -29 17 -51 4z"/>
<path d="M3630 1665 c-11 -13 -8 -21 20 -50 41 -42 56 -44 72 -9 11 24 9 29
-15 50 -32 28 -59 31 -77 9z"/>
<path d="M3206 1337 c-10 -8 -15 -19 -11 -29 6 -14 11 -15 31 -6 13 6 24 19
24 30 0 21 -19 23 -44 5z"/>
<path d="M1957 1252 c-17 -18 -17 -20 -1 -26 22 -8 26 -3 22 24 -3 22 -3 22
-21 2z"/>
<path d="M2630 1158 c0 -9 -3 -23 -6 -32 -4 -12 0 -16 15 -16 25 0 25 6 6 40
-10 18 -14 20 -15 8z"/>
<path d="M1898 4269 c-100 -39 -256 -119 -342 -177 -85 -56 -440 -403 -499
-487 -62 -87 -140 -227 -181 -323 -39 -90 -43 -112 -23 -112 7 0 27 36 45 80
104 266 340 568 585 752 113 83 276 177 392 223 95 38 110 47 104 63 -2 6 -36
-2 -81 -19z"/>
<path d="M3132 4278 c3 -7 40 -26 84 -43 164 -65 329 -161 467 -273 128 -104
133 -105 32 -5 -109 108 -196 170 -332 237 -166 82 -261 114 -251 84z"/>
<path d="M3927 3727 c95 -110 217 -308 288 -469 21 -49 41 -88 45 -88 19 0 15
21 -25 116 -77 188 -195 363 -302 450 l-48 39 42 -48z"/>
<path d="M815 2020 c-8 -13 87 -245 137 -333 80 -142 124 -195 327 -400 198
-200 211 -211 341 -290 141 -85 333 -172 359 -162 22 9 6 18 -104 65 -98 41
-268 134 -354 193 -273 187 -504 486 -642 830 -42 103 -51 118 -64 97z"/>
<path d="M4277 2023 c-3 -4 -21 -51 -41 -103 -107 -278 -283 -523 -521 -728
-132 -113 -263 -194 -445 -276 -128 -58 -149 -71 -137 -82 17 -18 280 105 417
194 122 79 467 430 550 559 108 167 216 411 193 434 -6 6 -13 7 -16 2z"/>
</g>
</svg>
